<svg xmlns="http://www.w3.org/2000/svg" viewBox="0 0 64 64">
  <defs>
    <linearGradient id="sky" x1="0" y1="0" x2="1" y2="1">
      <stop offset="0%" stop-color="#60a5fa"></stop>
      <stop offset="100%" stop-color="#7c3aed"></stop>
    </linearGradient>
  </defs>

  <rect width="64" height="64" rx="18" fill="url(#sky)"></rect>

  <circle cx="25" cy="25" r="12" fill="#facc15"></circle>

  <path d="M25 45h23c6 0 10-4 10-9s-4-9-9-9c-1 0-2 0-3 .4A14 14 0 0 0 20 33c-6 .5-10 5-10 11 0 1 .5 1 1 1h14z" fill="#f8fafc"></path>

  <path d="M17 45h32c5 0 9-4 9-9 0-1-.2-2-.5-3C56 39 52 43 47 43H15c-2 0-3-.4-4-1 .8 2 3 3 6 3z" fill="#dbeafe" opacity="0.9"></path>
</svg>